<svg xmlns="http://www.w3.org/2000/svg" height="28" width="28" viewBox="0 0 470 470"><path d="M70.5 14.9C31.6 14.9 0 46.5 0 85.4c0 34.8 25.3 63.7 58.5 69.4v290.1c0 6.6 5.4 12 12 12s12-5.4 12-12V154.8c33.2-5.7 58.5-34.7 58.5-69.4 0-38.9-31.7-70.5-70.5-70.5zm0 117c-25.6 0-46.5-20.8-46.5-46.5s20.8-46.5 46.5-46.5S117 59.7 117 85.4s-20.9 46.5-46.5 46.5zm164.8 122c6.6 0 12-5.4 12-12s-5.4-12-12-12-12 5.4-12 12c0 6.7 5.4 12 12 12zm0-129c6.6 0 12-5.4 12-12s-5.4-12-12-12-12 5.4-12 12 5.4 12 12 12zm0 86c6.6 0 12-5.4 12-12s-5.4-12-12-12-12 5.4-12 12 5.4 12 12 12zm0-129c6.6 0 12-5.4 12-12s-5.4-12-12-12-12 5.4-12 12 5.4 12 12 12zm0 215c6.6 0 12-5.4 12-12s-5.4-12-12-12-12 5.4-12 12c0 6.7 5.4 12 12 12zm0-129c6.6 0 12-5.4 12-12s-5.4-12-12-12-12 5.4-12 12 5.4 12 12 12zm0 148c-38.9 0-70.5 31.6-70.5 70.5s31.6 70.5 70.5 70.5 70.5-31.6 70.5-70.5-31.6-70.5-70.5-70.5zm0 117c-25.6 0-46.5-20.8-46.5-46.5s20.8-46.5 46.5-46.5c25.6 0 46.5 20.8 46.5 46.5s-20.9 46.5-46.5 46.5zm166-418c-38.9 0-70.5 31.6-70.5 70.5 0 34.8 25.3 63.7 58.5 69.4v290.1c0 6.6 5.4 12 12 12s12-5.4 12-12V154.8c33.2-5.7 58.5-34.7 58.5-69.4 0-38.9-31.6-70.5-70.5-70.5zm0 117c-25.6 0-46.5-20.8-46.5-46.5s20.9-46.5 46.5-46.5 46.5 20.8 46.5 46.5-20.8 46.5-46.5 46.5z"/></svg>